<?xml version="1.0" standalone="no"?>
<!DOCTYPE svg PUBLIC "-//W3C//DTD SVG 20010904//EN"
 "http://www.w3.org/TR/2001/REC-SVG-20010904/DTD/svg10.dtd">
<svg version="1.0" xmlns="http://www.w3.org/2000/svg"
 width="1159.000000pt" height="904.000000pt" viewBox="0 0 1159.000000 904.000000"
 preserveAspectRatio="xMidYMid meet">

<g transform="translate(0.000000,904.000000) scale(0.100000,-0.100000)"
fill="#000000" stroke="none">
<path d="M7152 8440 c-1 -19 -13 -215 -27 -435 -26 -427 -28 -461 -20 -453 8
7 57 845 52 887 l-4 36 -1 -35z"/>
<path d="M5620 8144 c-718 -51 -1317 -93 -1331 -93 l-27 -1 -6 -467 c-3 -258
-8 -586 -11 -730 l-5 -263 167 2 168 2 -163 3 -163 4 5 42 c3 23 8 346 11 717
4 371 7 676 8 676 1 1 173 14 382 28 501 35 1268 89 1797 126 236 16 440 30
454 30 26 0 26 -1 20 -57 -3 -32 -22 -397 -43 -810 l-38 -753 -190 -3 -190 -2
198 -3 197 -2 0 38 c0 36 62 1256 76 1488 4 61 3 113 -2 116 -5 2 -596 -37
-1314 -88z"/>
<path d="M8827 8172 c-25 -28 -21 -67 8 -89 26 -18 26 -18 23 -162 l-3 -144
-67 78 c-63 73 -66 79 -53 99 20 28 19 49 -3 69 -46 42 -114 0 -92 -57 6 -18
19 -28 40 -33 22 -4 51 -29 105 -92 l74 -86 1 -342 0 -343 -177 0 c-98 0 -195
-3 -215 -6 l-38 -7 0 58 c0 55 3 62 55 131 46 61 60 73 87 76 43 4 61 47 33
78 -23 25 -47 26 -70 0 -12 -13 -16 -29 -12 -47 4 -22 -5 -41 -41 -91 l-47
-64 -3 123 c-2 111 -1 124 18 144 37 39 20 85 -30 85 -53 0 -68 -54 -25 -88
24 -19 25 -24 25 -141 0 -67 -2 -121 -5 -121 -6 0 -64 64 -97 105 -15 20 -18
29 -9 38 17 17 13 52 -7 70 -24 22 -45 21 -65 -1 -30 -33 -16 -82 24 -82 10 0
50 -36 89 -81 70 -80 71 -81 68 -132 l-3 -52 -273 -7 -272 -7 -36 24 c-20 14
-43 25 -50 25 -9 0 -14 12 -14 33 0 68 -78 99 -146 58 -29 -18 -31 -18 -53 0
-34 28 -75 24 -113 -10 -27 -24 -33 -36 -32 -68 1 -34 -2 -40 -36 -55 -22 -11
-60 -18 -98 -18 -43 0 -62 -4 -62 -12 0 -7 7 -70 17 -140 l17 -128 -21 -22
c-28 -30 -45 -76 -38 -99 4 -13 -3 -29 -24 -50 -48 -48 -37 -115 25 -144 32
-15 34 -19 34 -68 0 -29 11 -83 25 -122 20 -55 25 -90 25 -162 l0 -92 33 11
c17 6 35 16 39 22 5 7 8 6 8 -4 1 -33 39 -272 44 -278 9 -8 7 12 -13 148 -10
69 -16 129 -14 134 3 4 26 6 50 3 30 -3 46 -1 49 7 3 7 27 36 53 64 46 48 49
50 55 29 3 -12 6 -48 6 -79 l0 -58 35 0 c19 0 35 5 35 11 0 5 4 8 9 4 6 -3 25
1 43 10 18 8 25 13 16 11 -27 -8 -32 13 -6 23 20 7 25 3 48 -43 14 -28 28 -53
32 -56 9 -7 58 -154 58 -175 0 -32 43 -245 49 -245 4 0 24 37 45 83 20 45 47
102 58 127 50 106 118 265 118 273 0 5 7 15 15 23 13 14 11 20 -21 60 -20 24
-39 42 -43 39 -4 -2 -8 2 -8 9 0 8 -17 34 -39 59 -32 37 -42 43 -54 34 -8 -7
-4 1 8 17 12 16 22 40 22 55 0 15 11 36 25 50 26 24 34 74 15 86 -7 4 -7 12 0
25 15 28 12 55 -9 82 -15 18 -18 34 -14 64 4 30 0 45 -17 67 -12 15 -30 27
-41 27 -15 0 -19 7 -19 36 0 49 -53 104 -102 104 -23 0 -37 6 -47 22 -11 18
-11 23 0 27 33 11 59 51 59 91 l0 40 78 1 c42 0 399 8 792 18 393 10 718 15
722 12 3 -3 72 -463 152 -1021 80 -558 148 -1025 150 -1037 3 -21 -1 -23 -40
-23 -24 0 -44 -4 -44 -10 0 -5 23 -10 50 -10 28 0 50 4 50 9 0 5 -59 415 -130
912 -72 497 -140 969 -151 1049 -12 80 -22 146 -22 147 -1 1 -135 -2 -297 -6
-162 -4 -298 -5 -302 -3 -5 2 -8 154 -8 338 l0 335 66 87 c55 74 69 86 91 84
29 -4 63 23 63 50 0 38 -19 58 -54 58 -44 0 -60 -21 -53 -66 5 -32 0 -44 -51
-112 l-57 -75 -3 142 c-3 142 -2 143 23 167 30 28 32 57 5 84 -25 25 -52 26
-73 2z m61 -8 c37 -26 23 -74 -23 -74 -43 0 -63 58 -27 79 23 14 24 14 50 -5z
m-158 -155 c9 -16 8 -26 -5 -45 -17 -27 -27 -29 -56 -14 -21 12 -25 50 -7 68
19 19 56 14 68 -9z m340 -4 c15 -19 6 -61 -16 -69 -27 -10 -53 3 -60 30 -8 30
11 54 41 54 12 0 28 -7 35 -15z m-620 -480 c23 -28 -9 -72 -45 -59 -36 14 -24
74 15 74 10 0 23 -7 30 -15z m-155 -121 c19 -20 16 -43 -7 -58 -21 -13 -51 2
-56 26 -3 16 23 48 38 48 5 0 16 -7 25 -16z m300 -10 c19 -20 16 -43 -7 -58
-38 -23 -78 35 -42 61 23 17 29 16 49 -3z m-1245 -404 c0 -31 6 -47 26 -65 15
-14 31 -25 35 -25 5 0 4 -10 -2 -23 -8 -18 -17 -22 -37 -19 -40 5 -82 -31 -82
-70 0 -17 -3 -28 -7 -24 -10 10 -44 237 -38 254 3 7 23 12 55 12 l50 0 0 -40z
m385 -480 c3 -6 -1 -7 -9 -4 -9 3 -16 1 -16 -5 0 -6 -5 -11 -11 -11 -8 0 -8 5
1 15 14 17 26 19 35 5z m-315 -46 c0 -2 -24 -4 -52 -3 -38 1 -46 3 -28 8 24 7
80 3 80 -5z m354 0 c9 -24 2 -26 -12 -4 -7 11 -8 20 -3 20 5 0 12 -7 15 -16z
m-467 -10 c-3 -3 -12 -4 -19 -1 -8 3 -5 6 6 6 11 1 17 -2 13 -5z m280 0 c-3
-3 -12 -4 -19 -1 -8 3 -5 6 6 6 11 1 17 -2 13 -5z m108 -13 c-3 -6 -11 -11
-16 -11 -5 0 -4 6 3 14 14 16 24 13 13 -3z m45 -21 c-8 -5 -19 -10 -25 -10 -5
0 -3 5 5 10 8 5 20 10 25 10 6 0 3 -5 -5 -10z m-66 -15 c3 -8 1 -15 -4 -15 -6
0 -10 7 -10 15 0 8 2 15 4 15 2 0 6 -7 10 -15z m106 -15 c0 -5 -2 -10 -4 -10
-3 0 -8 5 -11 10 -3 6 -1 10 4 10 6 0 11 -4 11 -10z m-430 -34 c0 -2 -8 -10
-17 -17 -16 -13 -17 -12 -4 4 13 16 21 21 21 13z m87 -138 c-3 -8 -6 -5 -6 6
-1 11 2 17 5 13 3 -3 4 -12 1 -19z m440 0 c-3 -8 -6 -5 -6 6 -1 11 2 17 5 13
3 -3 4 -12 1 -19z m-500 -10 c-3 -8 -6 -5 -6 6 -1 11 2 17 5 13 3 -3 4 -12 1
-19z m681 -33 c-3 -3 -9 2 -12 12 -6 14 -5 15 5 6 7 -7 10 -15 7 -18z m-151
-7 c-3 -8 -6 -5 -6 6 -1 11 2 17 5 13 3 -3 4 -12 1 -19z"/>
<path d="M5553 7795 c-144 -44 -235 -159 -249 -314 -7 -71 3 -201 15 -201 3 0
33 46 66 103 l60 102 6 -53 c11 -82 61 -135 153 -158 l28 -7 -3 45 -4 46 35
-31 c47 -42 125 -75 193 -83 61 -7 62 -6 48 44 -13 44 0 41 59 -16 31 -30 52
-60 56 -80 4 -17 10 -30 14 -27 4 3 18 45 30 95 18 72 21 110 18 193 -3 93 -7
108 -38 165 -48 91 -125 149 -235 178 -63 17 -197 17 -252 -1z"/>
<path d="M2113 7660 c0 -47 2 -66 4 -42 2 23 2 61 0 85 -2 23 -4 4 -4 -43z"/>
<path d="M2205 7645 c-48 -87 -40 -94 9 -9 21 36 36 67 33 70 -2 3 -21 -25
-42 -61z"/>
<path d="M1990 7697 c0 -13 61 -117 73 -124 6 -4 -4 20 -22 53 -33 60 -51 84
-51 71z"/>
<path d="M2273 7581 c-34 -20 -63 -39 -63 -44 0 -6 37 13 120 63 8 4 13 10 10
12 -3 3 -33 -12 -67 -31z"/>
<path d="M1890 7606 c0 -8 131 -78 136 -73 3 3 -24 21 -60 41 -62 35 -76 41
-76 32z"/>
<path d="M2088 7528 c-30 -24 -31 -56 -4 -83 14 -14 32 -25 41 -25 21 0 55 36
55 60 0 25 -34 60 -58 60 -10 0 -25 -6 -34 -12z m62 -18 c25 -25 25 -35 0 -60
-15 -15 -25 -17 -42 -11 -30 11 -37 60 -12 78 24 17 30 17 54 -7z"/>
<path d="M2258 7483 c23 -2 61 -2 85 0 23 2 4 4 -43 4 -47 0 -66 -2 -42 -4z"/>
<path d="M1898 7473 c23 -2 61 -2 85 0 23 2 4 4 -43 4 -47 0 -66 -2 -42 -4z"/>
<path d="M2210 7433 c0 -9 131 -85 137 -79 2 2 -12 13 -31 25 -20 11 -52 30
-71 42 -19 11 -35 17 -35 12z"/>
<path d="M1963 7393 c-35 -21 -63 -41 -63 -45 0 -6 123 62 137 76 17 17 -19 2
-74 -31z"/>
<path d="M2027 7323 c-20 -36 -36 -68 -33 -70 2 -2 16 18 31 44 16 26 35 58
43 71 8 12 10 22 6 22 -5 0 -26 -30 -47 -67z"/>
<path d="M2208 7325 c20 -36 41 -65 45 -65 5 0 -4 19 -18 43 -14 23 -31 52
-37 65 -6 12 -15 22 -19 22 -4 0 9 -29 29 -65z"/>
<path d="M2110 7196 l-5 -190 -118 103 c-91 79 -121 101 -130 92 -7 -7 -12
-44 -12 -92 l0 -80 41 -39 c64 -60 130 -70 203 -31 21 12 21 11 21 -101 l0
-113 -607 -129 c-335 -71 -612 -133 -618 -139 -6 -6 -3 -7 10 -4 11 3 405 87
875 187 883 187 886 188 879 195 -3 2 -119 -20 -259 -50 -140 -30 -258 -55
-262 -55 -5 0 -8 52 -8 114 l0 115 35 -15 c48 -20 82 -18 142 11 57 26 93 71
93 116 0 35 -19 89 -32 89 -5 0 -58 -38 -118 -85 -60 -47 -111 -85 -114 -85
-3 0 -7 84 -8 188 l-3 187 -5 -189z m-125 -101 c61 -52 110 -100 110 -107 0
-19 -45 -38 -88 -38 -88 0 -157 66 -157 150 0 49 9 90 19 90 3 0 56 -43 116
-95z m395 0 c1 -52 -69 -117 -141 -130 -32 -6 -120 18 -108 29 2 2 54 43 114
90 l110 86 12 -27 c7 -16 12 -37 13 -48z"/>
<path d="M5476 7221 c-6 -9 75 -33 84 -25 3 3 -4 12 -14 20 -22 16 -62 19 -70
5z"/>
<path d="M5745 7160 c-4 -6 6 -10 22 -10 15 0 39 -3 53 -7 22 -6 24 -5 11 10
-15 19 -76 23 -86 7z"/>
<path d="M5321 7018 c-19 -68 -36 -131 -39 -142 -5 -17 0 -18 66 -11 81 8 76
13 88 -97 3 -38 11 -68 16 -68 5 0 7 12 4 28 -3 15 -8 58 -12 95 l-7 69 -70
-7 c-58 -6 -69 -5 -65 7 3 7 18 58 32 113 15 55 29 108 32 118 3 9 2 17 -3 17
-5 0 -24 -55 -42 -122z"/>
<path d="M5576 7073 c-4 -38 -8 -89 -11 -115 -2 -27 0 -48 5 -48 6 0 10 12 11
28 0 15 4 64 8 110 3 46 3 86 0 88 -4 2 -10 -26 -13 -63z"/>
<path d="M5491 7116 c-16 -19 -10 -50 10 -54 21 -4 33 38 15 56 -10 11 -15 10
-25 -2z"/>
<path d="M5767 7064 c-10 -10 -9 -52 2 -58 13 -8 33 20 29 40 -3 19 -20 28
-31 18z"/>
<path d="M5847 6938 c-3 -13 -11 -60 -18 -105 -7 -46 -17 -83 -22 -83 -5 0
-31 16 -58 36 l-49 36 -48 -40 c-68 -58 -118 -112 -103 -112 7 0 44 30 81 66
l69 66 57 -41 c31 -23 60 -41 64 -41 4 0 14 46 24 103 10 56 20 110 22 120 3
9 1 17 -4 17 -6 0 -12 -10 -15 -22z"/>
<path d="M3976 6854 c-38 -8 -72 -17 -75 -20 -6 -6 9 -4 104 12 l35 6 3 -398
2 -399 3 408 c1 224 1 406 0 406 -2 -1 -34 -8 -72 -15z"/>
<path d="M3773 6798 c-26 -12 -32 -33 -7 -24 9 3 32 6 52 6 l37 1 -25 14 c-29
17 -29 17 -57 3z"/>
<path d="M3480 6780 c-8 -5 -12 -11 -10 -13 10 -8 100 5 94 14 -7 12 -65 11
-84 -1z"/>
<path d="M3145 6756 c-18 -13 -15 -14 26 -9 40 5 48 2 62 -18 9 -12 20 -19 24
-15 12 11 -45 56 -71 56 -12 0 -31 -6 -41 -14z"/>
<path d="M9750 6706 c0 -14 299 -1974 315 -2065 4 -18 9 -31 11 -28 6 5 -315
2099 -322 2106 -2 2 -4 -3 -4 -13z"/>
<path d="M3730 6691 c0 -6 9 -49 20 -96 26 -111 26 -119 -2 -112 -13 3 -35 9
-50 12 -16 4 -28 3 -28 -3 0 -10 110 -35 118 -27 7 7 -40 225 -50 231 -4 3 -8
1 -8 -5z"/>
<path d="M3793 6684 c-7 -18 9 -51 23 -46 14 3 11 55 -3 59 -7 3 -16 -3 -20
-13z"/>
<path d="M2198 6525 c-477 -88 -869 -163 -871 -165 -2 -3 18 -396 44 -875 26
-478 48 -896 48 -927 l1 -58 33 1 c29 1 30 2 7 8 l-25 7 -47 854 c-26 470 -47
884 -47 920 l-1 65 538 99 c1273 233 1204 220 1191 229 -2 2 -394 -69 -871
-158z"/>
<path d="M3506 6675 c-7 -20 3 -45 19 -45 19 0 27 17 20 40 -7 24 -30 26 -39
5z"/>
<path d="M4697 6670 c-16 -41 -24 -90 -17 -90 11 0 33 77 27 93 -3 8 -7 7 -10
-3z"/>
<path d="M4796 6637 c-5 -26 -6 -51 -2 -54 12 -13 17 6 14 53 l-3 49 -9 -48z"/>
<path d="M4901 6623 c-1 -29 3 -53 9 -53 12 0 12 44 0 80 -6 20 -8 14 -9 -27z"/>
<path d="M5243 6593 c126 -2 328 -2 450 0 122 1 20 2 -228 2 -247 0 -347 -1
-222 -2z"/>
<path d="M3560 6438 c0 -18 64 -47 90 -41 35 8 56 28 39 38 -8 6 -10 4 -4 -5
6 -10 4 -12 -11 -6 -33 13 -114 23 -114 14z"/>
<path d="M5585 5820 c-25 -75 -30 -82 -91 -131 -35 -28 -62 -54 -60 -58 3 -4
38 -18 79 -30 70 -22 77 -27 123 -87 27 -35 53 -62 58 -60 6 1 21 35 34 75 22
66 29 76 88 123 35 29 64 55 64 59 0 4 -36 19 -79 34 -76 25 -82 29 -128 90
-26 35 -51 64 -55 65 -3 0 -18 -36 -33 -80z m195 -81 c36 -12 69 -25 73 -29 4
-3 -18 -27 -50 -52 -52 -41 -61 -53 -83 -117 -13 -39 -27 -71 -30 -70 -3 0
-26 27 -52 59 -42 52 -54 60 -119 82 l-72 24 61 48 c55 43 63 55 83 115 12 36
24 70 26 74 3 4 26 -19 51 -52 42 -53 54 -63 112 -82z"/>
<path d="M3784 5568 c-16 -40 -30 -76 -32 -80 -2 -5 1 -8 6 -8 9 0 72 133 72
151 0 28 -21 0 -46 -63z"/>
<path d="M8631 5568 c11 -22 144 -258 234 -418 23 -41 52 -94 64 -117 l21 -43
-709 0 -710 0 -6 55 c-4 30 -12 58 -17 61 -6 4 -8 -1 -5 -12 3 -11 9 -43 12
-71 l7 -53 799 0 c526 0 799 3 799 10 0 6 -31 10 -72 10 l-73 1 -165 299 c-91
165 -171 300 -178 300 -10 0 -10 -5 -1 -22z"/>
<path d="M2371 5443 c-101 -81 -124 -103 -103 -103 4 0 54 38 112 85 58 47
108 85 113 85 10 0 9 20 -2 20 -5 0 -59 -39 -120 -87z"/>
<path d="M7614 5515 c3 -8 24 -74 46 -145 23 -71 50 -139 61 -152 11 -13 18
-18 16 -13 -3 6 -23 69 -46 140 -51 161 -61 185 -73 185 -6 0 -8 -7 -4 -15z"/>
<path d="M4040 4920 l0 -410 -1007 6 c-607 3 -1034 2 -1073 -4 -43 -6 297 -10
1013 -11 l1077 -1 0 415 c0 228 -2 415 -5 415 -3 0 -5 -184 -5 -410z"/>
<path d="M9410 4974 c0 -6 6 -32 14 -58 10 -33 12 -57 5 -79 -5 -17 -9 -41 -9
-52 0 -16 2 -17 10 -5 18 28 22 92 10 138 -12 45 -30 78 -30 56z"/>
<path d="M9496 4953 c4 -16 10 -39 14 -53 3 -13 1 -48 -6 -77 -7 -29 -8 -53
-4 -53 5 0 13 23 19 52 12 55 -1 158 -20 158 -5 0 -6 -12 -3 -27z"/>
<path d="M9595 4923 c5 -41 2 -71 -9 -102 -18 -49 -21 -70 -7 -55 21 23 41
111 35 157 -10 70 -26 70 -19 0z"/>
<path d="M6205 4847 c-9 -40 -25 -112 -36 -162 -11 -49 -26 -111 -34 -137
l-13 -47 53 28 c29 16 65 34 81 40 39 16 104 54 81 47 -11 -4 -16 -2 -12 5 4
6 14 8 22 5 13 -6 93 29 93 40 0 3 -4 3 -8 0 -5 -3 -15 7 -22 22 -20 44 -22
47 -87 121 -35 39 -63 75 -63 79 0 4 -9 13 -19 19 -18 11 -21 7 -36 -60z"/>
<path d="M5734 4708 c3 -13 6 -27 6 -33 0 -14 20 17 20 31 0 7 -7 15 -16 18
-13 5 -15 2 -10 -16z"/>
<path d="M5847 4703 c-4 -3 -7 -18 -6 -32 1 -26 1 -25 10 3 9 31 7 41 -4 29z"/>
<path d="M4956 4611 c-28 -29 -50 -42 -80 -47 -23 -3 -45 -8 -49 -11 -4 -3 10
-24 31 -47 27 -29 42 -56 47 -85 4 -22 10 -43 14 -46 4 -2 25 14 45 35 21 22
43 40 49 40 7 0 29 5 51 11 l39 11 -41 41 c-26 27 -45 59 -54 90 l-13 48 -39
-40z m45 -25 c6 -25 24 -56 40 -72 16 -15 29 -31 29 -35 0 -4 -17 -10 -39 -14
-24 -4 -49 -18 -67 -36 -15 -16 -31 -29 -35 -29 -5 0 -11 16 -15 37 -4 20 -22
53 -41 74 l-34 38 45 6 c35 6 53 15 74 40 15 19 28 34 29 34 2 1 8 -19 14 -43z"/>
<path d="M5804 4639 c-3 -6 -17 -9 -29 -7 l-23 5 19 -66 c23 -80 23 -90 3 -87
-16 3 -34 24 -33 41 0 6 6 -1 14 -15 8 -14 14 -20 15 -15 0 19 -70 115 -85
115 -35 0 -23 -39 66 -220 41 -83 89 -150 89 -124 0 5 11 -4 24 -20 l23 -30
96 39 c52 22 94 42 92 45 -2 4 6 6 18 6 19 -1 22 4 19 33 -1 19 -6 39 -11 45
-5 6 -7 19 -6 29 2 11 -3 17 -17 17 -19 0 -20 5 -15 48 5 44 4 43 -15 -21 -17
-55 -25 -68 -46 -74 -29 -7 -45 12 -37 45 14 62 14 74 0 37 -8 -22 -20 -48
-26 -59 -8 -14 -8 -16 3 -10 7 4 10 3 5 -1 -13 -15 -45 -15 -57 0 -7 8 -17 12
-22 9 -6 -4 -5 2 1 14 6 11 11 27 11 34 -1 7 -8 0 -16 -15 -11 -20 -22 -27
-37 -25 -31 4 -34 62 -7 145 21 64 21 93 1 93 -5 0 -13 -5 -17 -11z m6 -55 c0
-8 -4 -12 -10 -9 -5 3 -10 10 -10 16 0 5 5 9 10 9 6 0 10 -7 10 -16z"/>
<path d="M7031 4546 c-23 -23 -50 -39 -82 -46 -27 -7 -49 -14 -49 -17 0 -3 17
-25 38 -47 27 -29 41 -55 46 -84 3 -23 9 -42 12 -42 4 0 26 17 49 39 29 26 55
41 84 46 22 4 41 9 41 12 0 3 -17 25 -38 47 -27 29 -41 55 -46 84 -3 23 -10
42 -14 42 -5 0 -23 -15 -41 -34z m49 -33 c0 -13 16 -41 36 -62 l35 -40 -37 -7
c-21 -4 -54 -22 -75 -41 l-38 -34 -7 37 c-4 21 -22 54 -41 75 l-35 38 45 12
c26 6 57 23 73 40 30 31 44 25 44 -18z"/>
<path d="M7957 4446 c-44 -16 -79 -44 -71 -57 3 -5 0 -9 -5 -9 -15 0 -13 -70
2 -98 7 -12 42 -41 77 -65 72 -48 118 -116 119 -179 1 -32 5 -37 31 -43 16 -4
40 -19 54 -35 13 -16 26 -27 29 -24 3 3 1 -12 -4 -33 -5 -21 -9 -40 -9 -43 0
-3 -14 -20 -30 -39 -25 -27 -40 -33 -85 -38 l-55 -6 0 -44 c0 -66 37 -127 141
-233 37 -38 99 -150 99 -180 0 -9 3 -20 7 -23 3 -4 8 -24 10 -45 5 -50 20 -96
54 -167 37 -75 91 -132 160 -170 58 -31 87 -34 279 -24 61 3 81 0 103 -14 15
-10 33 -15 39 -11 7 4 8 3 4 -4 -7 -11 26 -35 38 -27 3 3 4 2 1 -1 -8 -12 21
-31 73 -48 44 -15 61 -16 97 -7 72 18 98 49 170 204 21 45 35 62 66 78 22 11
37 24 34 28 -2 5 3 15 13 22 15 13 16 12 3 -3 -20 -26 2 -22 27 5 69 73 52
200 -38 281 -48 43 -117 79 -136 72 -8 -3 -13 -2 -10 2 3 5 -17 17 -45 27 -27
11 -49 23 -49 27 0 3 -8 9 -18 12 -28 9 -86 106 -112 185 -12 40 -20 74 -17
78 7 6 59 15 627 103 217 33 407 63 423 66 l27 6 0 -1064 0 -1063 -1268 0
-1267 0 -5 562 c-3 309 -9 565 -14 570 -5 5 -6 -115 -2 -287 3 -162 6 -422 6
-577 l0 -283 1285 0 1285 0 0 1075 c0 1035 -1 1075 -18 1075 -19 0 -1029 -156
-1068 -165 -17 -4 -23 2 -33 37 -14 47 -65 103 -82 92 -8 -4 -9 -3 -5 4 8 14
-30 36 -46 26 -6 -4 -8 -3 -5 3 7 11 -146 79 -170 77 -7 -1 -10 3 -6 9 4 6 0
8 -10 4 -10 -4 -16 -2 -14 6 1 7 -6 11 -16 11 -10 -1 -16 0 -14 3 3 2 -18 37
-46 77 -29 40 -57 82 -64 92 -12 18 -12 18 -7 -1 5 -15 4 -17 -4 -6 -6 8 -8
19 -6 25 2 6 -10 29 -28 50 -39 48 -119 84 -201 92 -34 4 -88 15 -119 25 -67
22 -128 24 -181 5z m33 -20 c-4 -4 -16 -4 -26 2 -16 9 -14 10 8 9 15 -1 23 -6
18 -11z m-33 -12 c-3 -3 -12 -4 -19 -1 -8 3 -5 6 6 6 11 1 17 -2 13 -5z m53
-188 c0 -2 -7 -7 -16 -10 -8 -3 -12 -2 -9 4 6 10 25 14 25 6z m419 -146 c0
-10 -2 -11 -6 -2 -2 6 -8 10 -11 8 -4 -2 -7 12 -8 32 l-1 37 13 -30 c7 -16 13
-37 13 -45z m18 48 c-3 -8 -6 -5 -6 6 -1 11 2 17 5 13 3 -3 4 -12 1 -19z m144
-25 c13 -16 12 -17 -3 -4 -10 7 -18 15 -18 17 0 8 8 3 21 -13z m-80 -110 c13
-16 12 -17 -3 -4 -17 13 -22 21 -14 21 2 0 10 -8 17 -17z m59 -46 c0 -4 5 -5
12 -1 7 5 8 3 3 -6 -6 -10 -4 -12 11 -6 14 5 16 4 8 -4 -14 -14 -39 -4 -59 26
-15 24 -15 24 5 12 11 -7 20 -16 20 -21z m135 -5 c-3 -3 -11 0 -18 7 -9 10 -8
11 6 5 10 -3 15 -9 12 -12z m25 -47 c13 -14 21 -25 18 -25 -2 0 -15 11 -28 25
-13 14 -21 25 -18 25 2 0 15 -11 28 -25z m70 -89 c0 -12 -5 -7 -19 24 -11 24
-11 24 3 6 9 -11 16 -24 16 -30z m-49 17 c13 -16 12 -17 -3 -4 -10 7 -18 15
-18 17 0 8 8 3 21 -13z m16 -38 c8 -8 13 -19 11 -24 -2 -5 -11 2 -21 15 -20
27 -14 32 10 9z m-617 -5 c0 -5 -12 -10 -27 -9 -25 0 -26 1 -8 9 27 12 35 12
35 0z m637 -62 c-3 -8 -6 -5 -6 6 -1 11 2 17 5 13 3 -3 4 -12 1 -19z m-338
-40 c1 -5 -3 -8 -9 -8 -5 0 -10 12 -9 28 0 24 1 25 9 7 5 -11 9 -23 9 -27z
m388 -20 c-3 -8 -6 -5 -6 6 -1 11 2 17 5 13 3 -3 4 -12 1 -19z m-329 -33 c-3
-3 -9 2 -12 12 -6 14 -5 15 5 6 7 -7 10 -15 7 -18z m311 -25 c1 -13 0 -13 -9
0 -5 8 -9 24 -9 35 l0 20 9 -20 c5 -11 9 -27 9 -35z m-340 10 c11 -24 11 -24
-3 -6 -9 11 -16 24 -16 30 0 12 5 7 19 -24z m61 -20 c0 -5 -2 -10 -4 -10 -3 0
-8 5 -11 10 -3 6 -1 10 4 10 6 0 11 -4 11 -10z m404 -72 c-7 -12 -39 7 -63 38
-34 43 -12 49 30 8 21 -20 36 -41 33 -46z m-358 20 l19 -23 -25 20 c-14 11
-27 21 -29 22 -2 2 0 3 6 3 5 0 18 -10 29 -22z m-48 -13 c-3 -3 -9 2 -12 12
-6 14 -5 15 5 6 7 -7 10 -15 7 -18z m330 0 c-3 -3 -9 2 -12 12 -6 14 -5 15 5
6 7 -7 10 -15 7 -18z m155 -29 c4 -10 1 -13 -9 -9 -7 3 -14 9 -14 14 0 14 17
10 23 -5z m-33 -52 c0 -2 -9 0 -20 6 -11 6 -20 13 -20 16 0 2 9 0 20 -6 11 -6
20 -13 20 -16z m-251 -40 c3 -3 -12 2 -34 11 -22 9 -46 19 -52 22 -7 3 -13 9
-13 14 0 8 86 -33 99 -47z m367 14 l19 -23 -25 20 c-14 11 -27 21 -29 22 -2 2
0 3 6 3 5 0 18 -10 29 -22z m-866 -9 c0 -6 -4 -7 -10 -4 -5 3 -10 11 -10 16 0
6 5 7 10 4 6 -3 10 -11 10 -16z m825 -7 c-3 -3 -11 0 -18 7 -9 10 -8 11 6 5
10 -3 15 -9 12 -12z m-239 -14 l19 -23 -25 20 c-14 11 -27 21 -29 22 -2 2 0 3
6 3 5 0 18 -10 29 -22z m555 5 c13 -16 12 -17 -3 -4 -10 7 -18 15 -18 17 0 8
8 3 21 -13z m-281 -13 c0 -5 -7 -7 -15 -4 -8 4 -15 8 -15 10 0 2 7 4 15 4 8 0
15 -4 15 -10z m-236 -26 c3 -8 2 -12 -4 -9 -6 3 -10 10 -10 16 0 14 7 11 14
-7z m320 0 c3 -8 2 -12 -4 -9 -6 3 -10 10 -10 16 0 14 7 11 14 -7z m-565 -57
c-2 -2 -17 12 -33 32 l-30 36 34 -32 c19 -18 32 -34 29 -36z m222 26 c13 -16
12 -17 -3 -4 -10 7 -18 15 -18 17 0 8 8 3 21 -13z m343 -29 c3 -8 2 -12 -4 -9
-6 3 -10 10 -10 16 0 14 7 11 14 -7z m48 -106 c-6 -6 -7 0 -4 19 5 21 7 23 10
9 2 -10 0 -22 -6 -28z m-310 2 c-2 -16 -6 -30 -8 -30 -2 0 -4 14 -4 30 0 17 4
30 8 30 5 0 7 -13 4 -30z m-35 -62 c-3 -8 -6 -5 -6 6 -1 11 2 17 5 13 3 -3 4
-12 1 -19z m59 -32 c3 -26 2 -27 -11 -10 -17 23 -19 47 -4 42 7 -2 13 -17 15
-32z m-214 -58 c2 -21 0 -38 -4 -38 -4 0 -8 21 -7 48 1 52 6 48 11 -10z m189
-21 l23 -32 -23 20 c-13 11 -27 28 -33 39 -16 29 7 11 33 -27z m112 -28 c5
-17 3 -18 -9 -8 -8 6 -12 14 -9 17 3 3 -1 12 -8 21 -10 14 -10 14 4 3 9 -7 19
-22 22 -33z m-42 -16 c13 -16 12 -17 -3 -4 -10 7 -18 15 -18 17 0 8 8 3 21
-13z m179 -132 c0 -5 -7 -14 -15 -21 -16 -14 -18 -10 -9 14 6 17 24 22 24 7z"/>
<path d="M8900 3555 c19 -19 36 -35 39 -35 3 0 -10 16 -29 35 -19 19 -36 35
-39 35 -3 0 10 -16 29 -35z"/>
<path d="M1756 4198 c-5 -86 -47 -1667 -46 -1768 l0 -44 -49 48 c-28 27 -63
68 -80 91 l-30 42 25 24 c96 89 112 239 26 239 -33 0 -46 -36 -51 -154 l-6
-109 -81 124 c-45 68 -93 146 -109 172 l-27 48 42 83 c49 97 62 171 37 210
-21 31 -52 38 -72 16 -21 -23 -39 -141 -32 -210 6 -55 6 -55 -12 -31 -10 13
-50 86 -90 161 l-72 138 -3 144 c-1 84 -8 155 -15 173 -19 45 -51 75 -82 75
-91 0 -76 -122 39 -313 61 -101 125 -227 119 -234 -3 -2 -34 19 -69 47 -34 29
-91 66 -126 82 -53 25 -67 29 -87 20 -52 -24 -39 -86 26 -134 31 -23 126 -47
216 -55 l72 -6 76 -131 c41 -72 87 -150 101 -172 l25 -42 -79 39 c-84 42 -135
55 -176 45 -49 -12 -45 -75 7 -104 26 -14 56 -17 153 -16 l121 1 17 -28 c31
-53 140 -194 190 -248 l51 -53 0 -149 0 -149 287 -3 c158 -1 282 1 275 5 -7 4
-135 8 -285 8 l-272 0 5 163 c4 89 17 582 30 1096 13 513 25 934 27 936 2 1
2333 -193 2333 -194 0 -1 -1 -99 -1 -218 l-2 -218 10 219 c5 120 6 221 3 224
-3 3 -506 47 -1117 98 -612 51 -1141 95 -1175 98 l-61 6 -6 -92z m-697 -548
c10 -5 26 -28 35 -52 21 -50 34 -236 19 -263 -9 -15 -16 -8 -49 50 -76 137
-102 233 -72 263 15 15 43 15 67 2z m-35 -426 c62 -41 167 -126 162 -131 -7
-7 -145 16 -198 33 -61 20 -98 55 -98 93 0 56 52 58 134 5z m372 -29 c23 -36
13 -92 -33 -184 l-38 -76 -3 115 c-3 123 8 170 39 170 10 0 26 -11 35 -25z
m236 -392 c10 -9 18 -30 18 -47 0 -33 -46 -122 -75 -146 -17 -14 -17 -9 -13
75 6 123 26 158 70 118z m-313 -33 c39 -18 76 -38 81 -45 22 -27 -187 -26
-231 0 -18 12 -27 40 -18 64 8 21 14 23 53 19 24 -3 76 -20 115 -38z"/>
<path d="M7900 4202 c1 -4 14 -23 30 -42 25 -29 30 -31 30 -14 0 11 -6 27 -12
36 -14 17 -48 32 -48 20z"/>
<path d="M7820 4136 c-7 -9 -9 -23 -6 -32 6 -15 9 -15 29 -1 12 8 22 21 22 28
0 20 -30 23 -45 5z"/>
<path d="M3312 3945 c-91 -20 -150 -53 -215 -118 -47 -47 -70 -84 -127 -200
-58 -120 -170 -400 -170 -425 0 -12 151 -109 210 -135 61 -27 227 -82 291 -96
l42 -9 -7 117 -7 118 40 7 c40 6 113 58 100 71 -4 3 -21 -8 -38 -26 -30 -29
-35 -31 -88 -27 -70 6 -103 37 -103 98 0 30 6 43 31 64 35 30 36 30 69 11 38
-22 40 -19 25 33 -24 76 -16 194 10 172 19 -16 26 1 32 71 4 40 9 56 15 47 12
-18 50 29 85 105 27 57 33 62 66 48 17 -6 17 -8 -2 -25 -20 -18 -30 -66 -13
-66 4 0 15 18 25 40 10 22 23 40 28 40 19 0 89 -41 126 -73 l37 -32 -20 33
c-28 50 -98 111 -159 138 -69 32 -192 40 -283 19z"/>
<path d="M8043 3923 c-25 -9 -13 -22 16 -17 16 3 38 1 50 -5 13 -7 21 -8 21
-2 0 22 -55 37 -87 24z"/>
<path d="M3655 3790 c-9 -15 14 -40 36 -40 26 0 32 16 13 34 -18 18 -40 21
-49 6z"/>
<path d="M3620 3711 c0 -5 38 -10 85 -13 47 -2 88 -7 91 -11 4 -4 -3 -30 -15
-58 -12 -29 -19 -55 -16 -58 4 -3 9 0 13 6 12 19 46 123 41 127 -9 8 -199 15
-199 7z"/>
<path d="M3446 3621 c-10 -11 -16 -30 -14 -43 3 -21 5 -20 26 15 12 21 22 40
22 43 0 10 -18 2 -34 -15z"/>
<path d="M7773 3623 c-18 -2 -33 -8 -33 -12 0 -5 24 -4 53 1 84 16 72 22 -20
11z"/>
<path d="M3525 3561 c-7 -13 34 -41 51 -34 17 6 18 15 2 31 -14 14 -44 16 -53
3z"/>
<path d="M3788 3487 c-16 -13 -28 -27 -28 -33 0 -6 -11 -21 -25 -34 -22 -21
-23 -25 -10 -33 22 -12 81 10 100 36 18 26 20 87 3 87 -7 -1 -25 -11 -40 -23z"/>
<path d="M10560 3503 c-75 -28 -65 -146 22 -288 31 -49 31 -53 36 -206 2 -86
1 -183 -3 -215 l-7 -57 -33 62 c-61 115 -110 164 -162 164 -56 0 -82 -76 -43
-125 22 -28 134 -90 198 -109 23 -7 42 -15 42 -18 0 -39 -47 -304 -69 -396
-44 -180 -44 -180 -65 -102 -37 135 -97 227 -148 227 -31 0 -76 -31 -88 -60
-15 -37 -5 -71 38 -121 32 -37 159 -130 195 -142 9 -3 6 -22 -12 -78 -29 -92
-100 -268 -141 -348 l-30 -61 -1223 -2 -1222 -3 1218 -2 c936 -2 1217 -6 1217
-15 0 -9 3 -9 12 0 8 8 55 13 133 14 l120 2 -118 3 c-65 2 -117 7 -115 12 2 4
23 53 47 108 l44 100 116 0 c130 -1 186 11 231 49 26 22 30 33 30 73 0 54 -29
91 -71 91 -41 0 -121 -44 -208 -115 -46 -37 -81 -59 -76 -48 29 71 108 328
130 424 l27 117 74 12 c95 15 195 64 208 103 13 37 -2 78 -37 97 -25 14 -30
13 -74 -10 -29 -15 -68 -51 -102 -92 -30 -37 -56 -66 -58 -64 -2 1 4 47 12
102 8 54 18 153 22 219 l6 120 81 23 c87 24 152 62 175 103 12 22 12 31 2 58
-32 76 -119 33 -227 -113 l-29 -40 -6 105 c-5 86 -2 117 14 179 11 41 21 108
21 148 1 69 -1 75 -27 98 -28 24 -47 28 -77 17z m82 -35 c18 -33 15 -121 -6
-207 l-19 -74 -18 24 c-31 40 -79 165 -79 205 0 50 23 74 71 74 29 0 41 -5 51
-22z m236 -360 c20 -41 -5 -80 -70 -112 -65 -31 -158 -58 -158 -46 0 16 100
135 138 163 44 33 72 32 90 -5z m-390 -202 c48 -52 109 -166 89 -166 -23 0
-162 71 -189 98 -32 29 -36 67 -11 94 28 31 66 23 111 -26z m351 -282 c54 -69
-9 -128 -171 -159 -38 -7 -68 -10 -68 -8 0 11 70 99 102 130 34 33 84 63 105
63 6 0 21 -12 32 -26z m-466 -220 c14 -14 35 -45 46 -67 26 -55 67 -195 59
-203 -9 -8 -110 58 -165 109 -77 70 -88 131 -31 171 32 23 61 20 91 -10z m377
-374 c32 -32 27 -92 -10 -124 -43 -36 -89 -46 -209 -46 l-105 0 30 31 c70 73
205 158 252 159 12 0 31 -9 42 -20z"/>
<path d="M3871 3423 c-16 -65 -64 -133 -122 -173 -38 -25 -61 -33 -112 -37
l-65 -6 -9 -58 -10 -59 34 0 c46 0 164 28 241 56 86 33 182 82 182 94 0 8
-115 217 -125 228 -1 1 -8 -19 -14 -45z"/>
<path d="M3313 3358 c-22 -11 -38 -36 -28 -46 3 -3 12 4 21 16 11 16 25 22 55
22 21 0 39 5 39 10 0 13 -59 12 -87 -2z"/>
<path d="M5375 3303 c-16 -9 -41 -24 -54 -34 -13 -11 -35 -19 -49 -19 -53 0
-142 -33 -182 -67 -36 -31 -57 -64 -28 -47 7 4 8 3 4 -5 -4 -6 -11 -9 -16 -6
-4 3 -13 -2 -20 -10 -11 -13 -59 -15 -312 -15 -230 0 -300 -3 -303 -12 -5 -13
-205 -2105 -205 -2140 0 -17 63 -18 1435 -18 l1435 0 -1 33 c0 17 -57 511
-127 1097 l-127 1065 -174 3 c-108 1 -178 -1 -185 -8 -6 -6 48 -8 167 -3 l176
6 5 -24 c5 -21 256 -2133 256 -2151 0 -5 -642 -8 -1426 -8 l-1425 0 6 52 c3
29 42 433 85 898 44 465 87 922 96 1015 9 94 18 172 21 175 2 2 128 6 279 8
l275 4 -25 -37 c-31 -45 -34 -102 -7 -136 11 -15 20 -47 23 -89 10 -123 84
-222 192 -256 31 -10 56 -22 56 -26 0 -5 4 -7 9 -3 6 3 8 -4 6 -16 -6 -29 6
-80 16 -73 5 3 7 9 4 14 -3 4 3 7 13 6 9 0 16 5 14 12 -1 8 2 11 7 8 12 -8
283 129 274 138 -4 4 0 4 9 1 9 -4 26 -2 37 5 18 9 19 14 10 32 l-11 21 -14
-24 c-20 -36 -17 -17 6 35 10 25 25 46 33 46 18 0 53 39 67 74 14 37 5 79 -25
114 -12 15 -28 46 -35 69 -7 24 -17 40 -23 36 -6 -3 -7 -1 -3 5 4 6 2 21 -4
32 -10 20 -8 20 127 21 76 1 149 5 163 9 31 10 -97 11 -226 2 -87 -7 -92 -6
-108 16 -10 12 -21 20 -27 17 -5 -4 -9 0 -9 7 0 7 -16 22 -35 32 -19 11 -35
23 -35 28 0 5 -3 7 -7 5 -5 -3 -9 10 -10 28 -2 35 -18 75 -31 75 -4 -1 -20 -8
-37 -17z m-40 -53 c-3 -5 -16 -15 -28 -21 -22 -12 -22 -12 -3 10 19 21 43 30
31 11z m-219 -72 c4 -7 4 -10 -1 -6 -4 4 -15 2 -24 -5 -14 -11 -14 -10 -2 6
16 20 18 21 27 5z m364 -43 c0 -5 -5 -3 -10 5 -8 12 -10 12 -10 1 0 -8 -2 -12
-5 -9 -3 3 -2 13 1 22 5 14 9 15 15 4 5 -7 9 -17 9 -23z m-59 -3 c-6 -11 -7
-23 -3 -27 4 -5 2 -5 -5 -1 -9 5 -10 13 -1 31 6 14 13 23 15 21 3 -2 0 -13 -6
-24z m-191 -4 c0 -13 -32 -6 -37 9 -3 7 3 9 16 6 12 -3 21 -10 21 -15z m250
-17 c0 -5 8 -12 18 -15 10 -3 7 -4 -7 -3 -24 2 -44 27 -22 27 6 0 11 -4 11 -9z
m-423 -103 c5 -7 13 -22 17 -32 7 -19 6 -19 -13 -2 -11 10 -18 22 -16 27 3 4
1 10 -5 14 -5 3 -9 25 -9 48 l2 42 6 -42 c4 -23 12 -47 18 -55z m393 72 c6
-11 8 -20 6 -20 -3 0 -10 9 -16 20 -6 11 -8 20 -6 20 3 0 10 -9 16 -20z m-314
-138 c-16 -2 -32 0 -37 5 -5 5 7 7 29 4 34 -5 35 -6 8 -9z m255 -48 c9 -11 2
-9 -18 6 -18 13 -33 25 -33 27 0 8 38 -17 51 -33z m-11 -354 c-8 -5 -35 -9
-60 -8 l-45 1 50 7 c28 4 55 7 60 8 6 1 3 -3 -5 -8z"/>
<path d="M4087 3003 c-4 -38 -7 -142 -7 -233 0 -91 -3 -283 -7 -427 l-6 -263
-274 0 c-180 0 -273 -3 -273 -10 0 -12 528 -13 547 -2 8 5 15 150 23 501 6
272 9 496 7 498 -2 2 -7 -27 -10 -64z"/>
<path d="M2729 2486 l-145 -94 -78 14 c-72 14 -122 14 -86 1 28 -11 692 -118
704 -114 15 5 -12 11 -259 52 -115 19 -220 38 -233 41 -20 4 -2 19 110 90 138
89 159 104 143 104 -6 0 -76 -42 -156 -94z"/>
<path d="M3221 2030 c0 -8 4 -33 9 -55 7 -30 6 -52 -6 -88 -18 -53 -12 -76 8
-31 16 37 16 143 0 169 -8 14 -11 16 -11 5z"/>
<path d="M3300 2033 c1 -5 5 -28 10 -53 7 -34 5 -57 -6 -93 -9 -26 -14 -53
-11 -60 2 -6 12 12 21 41 14 40 16 68 11 112 -4 33 -11 60 -16 60 -5 0 -9 -3
-9 -7z"/>
<path d="M3401 1973 c2 -41 -4 -72 -20 -107 -29 -66 -19 -71 13 -7 27 53 36
153 15 166 -7 5 -9 -13 -8 -52z"/>
<path d="M1400 1910 c0 -6 321 -10 885 -10 592 0 885 3 885 10 0 7 -292 10
-885 10 -564 0 -885 -4 -885 -10z"/>
<path d="M3500 1910 c0 -6 50 -10 130 -10 80 0 130 4 130 10 0 6 -50 10 -130
10 -80 0 -130 -4 -130 -10z"/>
<path d="M5094 1753 c3 -16 26 -143 51 -283 43 -244 62 -332 64 -300 3 33
-103 610 -112 610 -5 0 -6 -12 -3 -27z"/>
<path d="M4393 763 c241 -2 633 -2 870 0 238 1 41 2 -438 2 -478 0 -673 -1
-432 -2z"/>
<path d="M6730 750 c0 -6 154 -9 405 -10 269 0 405 3 405 10 0 7 -136 10 -405
10 -251 0 -405 -4 -405 -10z"/>
</g>
</svg>
